<svg width="13" height="8" viewBox="0 0 13 8" fill="none" xmlns="http://www.w3.org/2000/svg">
<path d="M12.6833 2.13335L7.08326 7.75002C7.01659 7.81668 6.94437 7.86379 6.86659 7.89135C6.78882 7.91935 6.70548 7.93335 6.61659 7.93335C6.52771 7.93335 6.44437 7.91935 6.36659 7.89135C6.28882 7.86379 6.21659 7.81668 6.14993 7.75002L0.53326 2.13335C0.377704 1.97779 0.299926 1.78335 0.299926 1.55002C0.299926 1.31668 0.38326 1.11668 0.549926 0.950016C0.716593 0.78335 0.911038 0.700016 1.13326 0.700016C1.35548 0.700016 1.54993 0.78335 1.71659 0.950016L6.61659 5.85002L11.5166 0.950016C11.6721 0.79446 11.8637 0.716682 12.0913 0.716682C12.3193 0.716682 12.5166 0.800016 12.6833 0.966682C12.8499 1.13335 12.9333 1.32779 12.9333 1.55002C12.9333 1.77224 12.8499 1.96668 12.6833 2.13335Z" fill="#1A1A1B"/>
</svg>
