<svg width="22" height="27" viewBox="0 0 22 27" fill="none" xmlns="http://www.w3.org/2000/svg">
<path d="M11 27C11.6483 27 12.2701 26.7414 12.7285 26.2811C13.187 25.8208 13.4445 25.1964 13.4445 24.5455H8.5555C8.5555 25.1964 8.81304 25.8208 9.27148 26.2811C9.72991 26.7414 10.3517 27 11 27ZM1.22199 22.0909H20.778C21.0197 22.0909 21.256 22.0189 21.4569 21.884C21.6579 21.7491 21.8145 21.5575 21.907 21.3333C21.9995 21.109 22.0237 20.8623 21.9765 20.6243C21.9294 20.3862 21.813 20.1676 21.6421 19.996L19.5558 17.901V11.0455C19.5518 8.98179 18.8089 6.98839 17.4625 5.4292C16.1161 3.87001 14.2562 2.84905 12.2223 2.55273V1.22727C12.2223 0.90178 12.0935 0.589618 11.8643 0.35946C11.635 0.129302 11.3242 0 11 0C10.6758 0 10.365 0.129302 10.1357 0.35946C9.90652 0.589618 9.77775 0.90178 9.77775 1.22727V2.55273C7.74383 2.84905 5.88389 3.87001 4.53752 5.4292C3.19115 6.98839 2.44817 8.98179 2.44424 11.0455V17.901L0.357859 19.996C0.186977 20.1676 0.0706107 20.3862 0.0234715 20.6243C-0.0236678 20.8623 0.000536508 21.109 0.0930243 21.3333C0.185512 21.5575 0.342131 21.7491 0.543081 21.884C0.744031 22.0189 0.98029 22.0909 1.22199 22.0909ZM4.53062 19.2768C4.75986 19.0467 4.88867 18.7346 4.88874 18.4091V11.0455C4.88874 9.41799 5.53261 7.85718 6.67869 6.70639C7.82477 5.5556 9.3792 4.90909 11 4.90909C12.6208 4.90909 14.1752 5.5556 15.3213 6.70639C16.4674 7.85718 17.1113 9.41799 17.1113 11.0455V18.4091C17.1113 18.7346 17.2401 19.0467 17.4694 19.2768L17.8275 19.6364H4.1725L4.53062 19.2768Z" fill="black" fill-opacity="0.85"/>
</svg>
