<svg width="22" height="20" viewBox="0 0 22 20" fill="none" xmlns="http://www.w3.org/2000/svg">
<path fill-rule="evenodd" clip-rule="evenodd" d="M2.705 0H18.795C19.228 0 19.625 -1.86265e-08 19.947 0.043C20.303 0.091 20.678 0.203 20.987 0.513C21.297 0.822 21.409 1.197 21.457 1.553C21.5 1.876 21.5 2.273 21.5 2.705V2.795C21.5 3.228 21.5 3.625 21.457 3.947C21.409 4.303 21.297 4.678 20.987 4.987C20.694 5.281 20.34 5.397 20 5.449V10.806C20 12.644 20 14.1 19.847 15.239C19.689 16.411 19.357 17.36 18.609 18.109C17.86 18.857 16.911 19.189 15.739 19.347C14.599 19.5 13.144 19.5 11.306 19.5H10.194C8.356 19.5 6.9 19.5 5.761 19.347C4.589 19.189 3.64 18.857 2.891 18.109C2.143 17.36 1.811 16.411 1.653 15.239C1.5 14.099 1.5 12.644 1.5 10.806V5.45C1.16 5.398 0.806 5.282 0.513 4.988C0.203 4.679 0.091 4.304 0.043 3.948C-1.86265e-08 3.625 0 3.228 0 2.796V2.706C0 2.273 -1.86265e-08 1.876 0.043 1.554C0.091 1.198 0.203 0.823 0.513 0.514C0.822 0.204 1.197 0.0919999 1.553 0.0439999C1.876 0.000999909 2.273 0 2.705 0ZM3 5.501V10.75C3 12.657 3.002 14.012 3.14 15.04C3.275 16.045 3.529 16.625 3.952 17.048C4.375 17.471 4.955 17.725 5.961 17.86C6.989 17.998 8.343 18 10.25 18H11.25C13.157 18 14.512 17.998 15.54 17.86C16.545 17.725 17.125 17.471 17.548 17.048C17.971 16.625 18.225 16.045 18.36 15.039C18.498 14.012 18.5 12.657 18.5 10.75V5.5L3 5.501ZM1.573 1.573L1.576 1.572C1.63294 1.55043 1.69244 1.53631 1.753 1.53C1.963 1.502 2.257 1.5 2.75 1.5H18.75C19.243 1.5 19.537 1.502 19.747 1.53C19.8076 1.53629 19.8671 1.5504 19.924 1.572L19.927 1.573L19.928 1.576C19.9496 1.63293 19.9637 1.69243 19.97 1.753C19.998 1.963 20 2.257 20 2.75C20 3.243 19.998 3.537 19.97 3.747C19.9637 3.80757 19.9496 3.86707 19.928 3.924L19.927 3.927L19.924 3.928C19.8671 3.9496 19.8076 3.96371 19.747 3.97C19.537 3.998 19.243 4 18.75 4H2.75C2.257 4 1.963 3.998 1.753 3.97C1.69244 3.96369 1.63294 3.94957 1.576 3.928L1.573 3.927L1.572 3.924C1.55043 3.86706 1.53631 3.80756 1.53 3.747C1.502 3.537 1.5 3.243 1.5 2.75C1.5 2.257 1.502 1.963 1.53 1.753C1.53631 1.69244 1.55043 1.63294 1.572 1.576L1.573 1.573ZM9.228 7.5H12.272C12.486 7.5 12.682 7.5 12.848 7.511C13.026 7.523 13.221 7.551 13.42 7.633C13.848 7.811 14.19 8.152 14.367 8.58C14.449 8.779 14.477 8.974 14.489 9.152C14.5 9.317 14.5 9.514 14.5 9.728V9.772C14.5 9.986 14.5 10.182 14.489 10.348C14.477 10.526 14.449 10.721 14.367 10.92C14.1894 11.3487 13.8487 11.6894 13.42 11.867C13.221 11.949 13.026 11.977 12.848 11.989C12.683 12 12.486 12 12.272 12H9.228C9.014 12 8.818 12 8.652 11.989C8.45592 11.9801 8.26266 11.9389 8.08 11.867C7.65125 11.6894 7.31061 11.3487 7.133 10.92C7.06107 10.7374 7.01985 10.5441 7.011 10.348C7.00119 10.1562 6.99752 9.96407 7 9.772V9.728C7 9.514 7 9.318 7.011 9.152C7.023 8.974 7.051 8.779 7.133 8.58C7.31061 8.15125 7.65125 7.81061 8.08 7.633C8.279 7.551 8.474 7.523 8.652 7.511C8.817 7.5 9.014 7.5 9.228 7.5ZM8.651 9.02C8.59254 9.04549 8.54604 9.09235 8.521 9.151C8.51389 9.18493 8.50955 9.21937 8.508 9.254C8.50039 9.41922 8.49772 9.58462 8.5 9.75C8.5 9.993 8.5 10.138 8.508 10.246C8.512 10.313 8.518 10.341 8.52 10.349C8.54549 10.4075 8.59235 10.454 8.651 10.479C8.68492 10.4862 8.71937 10.4905 8.754 10.492C8.862 10.5 9.007 10.5 9.25 10.5H12.25C12.493 10.5 12.638 10.5 12.746 10.492C12.7806 10.4908 12.8151 10.4868 12.849 10.48C12.9075 10.4545 12.954 10.4076 12.979 10.349C12.9862 10.3151 12.9905 10.2806 12.992 10.246C13 10.138 13 9.993 13 9.75C13 9.507 13 9.362 12.992 9.254C12.9908 9.2194 12.9868 9.18495 12.98 9.151C12.9545 9.09254 12.9076 9.04604 12.849 9.021C12.8151 9.01385 12.7806 9.0095 12.746 9.008C12.5808 9.00037 12.4154 8.9977 12.25 9H9.25C9.007 9 8.862 9 8.754 9.008C8.71939 9.00916 8.68495 9.01318 8.651 9.02Z" fill="#758A88"/>
</svg>
