<svg width="30" height="30" viewBox="0 0 30 30" fill="none" xmlns="http://www.w3.org/2000/svg">
<path d="M14.6746 0C6.60329 0 -0.000488281 6.60378 -0.000488281 14.6751C-0.000488281 22.7463 6.60329 29.3501 14.6746 29.3501C22.7459 29.3501 29.3496 22.7463 29.3496 14.6751C29.3496 6.60378 22.7459 0 14.6746 0ZM20.8381 12.1803L13.7941 19.2243C13.2071 19.8113 12.3266 19.8113 11.7396 19.2243L8.51105 15.9958C7.92405 15.4088 7.92405 14.5283 8.51105 13.9413C9.09805 13.3543 9.97855 13.3543 10.5656 13.9413L12.7668 16.1426L18.7836 10.1258C19.3706 9.53879 20.2511 9.53879 20.8381 10.1258C21.4251 10.7128 21.4251 11.5933 20.8381 12.1803Z" fill="#329993"/>
</svg>
