<svg width="48" height="48" viewBox="0 0 48 48" fill="none" xmlns="http://www.w3.org/2000/svg">
<path d="M29.4259 26.832C35.1421 26.832 39.7759 22.1982 39.7759 16.482C39.7759 10.7659 35.1421 6.13202 29.4259 6.13202C23.7098 6.13202 19.0759 10.7659 19.0759 16.482C19.0759 22.1982 23.7098 26.832 29.4259 26.832Z" stroke="#329993" stroke-linecap="round" stroke-linejoin="round"/>
<path d="M43.4999 41.868V31.95C43.4062 31.0671 43.0127 30.2429 42.3848 29.6151C41.757 28.9872 40.9328 28.5937 40.0499 28.5H18.4879L11.5879 31.087L17.6909 24.567" stroke="#329993" stroke-linecap="round" stroke-linejoin="round"/>
<path d="M15.9009 41.868V35.399L8.9759 37.126C3.8959 38.393 3.4779 32.548 6.0319 29.52L15.2859 18.545M19.3399 13.572L14.1649 15.297L18.3329 26.061L22.8299 24.562" stroke="#329993" stroke-linecap="round" stroke-linejoin="round"/>
</svg>
