<svg width="30" height="30" viewBox="0 0 30 30" fill="none" xmlns="http://www.w3.org/2000/svg">
<path d="M14.6745 0C6.56776 0 -0.000488281 6.56825 -0.000488281 14.675C-0.000488281 22.7818 6.56776 29.35 14.6745 29.35C22.7813 29.35 29.3495 22.7818 29.3495 14.675C29.3495 6.56825 22.7813 0 14.6745 0ZM21.87 18.5272C22.1481 18.8053 22.1481 19.255 21.87 19.5331L19.5267 21.8705C19.2486 22.1486 18.7989 22.1486 18.5208 21.8705L14.6745 17.9887L10.8223 21.8705C10.5442 22.1486 10.0945 22.1486 9.81638 21.8705L7.47903 19.5272C7.20091 19.2491 7.20091 18.7994 7.47903 18.5213L11.3608 14.675L7.47903 10.8228C7.20091 10.5447 7.20091 10.095 7.47903 9.81686L9.82229 7.4736C10.1004 7.19548 10.5501 7.19548 10.8282 7.4736L14.6745 11.3613L18.5267 7.47952C18.8048 7.2014 19.2545 7.2014 19.5326 7.47952L21.8759 9.82278C22.154 10.1009 22.154 10.5506 21.8759 10.8287L17.9882 14.675L21.87 18.5272Z" fill="#D55959"/>
</svg>
