<svg width="24" height="18" viewBox="0 0 24 18" fill="none" xmlns="http://www.w3.org/2000/svg">
<path d="M14.8947 17C14.8947 14.6427 11.7846 12.7333 7.94737 12.7333C4.11011 12.7333 1 14.6427 1 17M19.5263 13.8V10.6M19.5263 10.6V7.4M19.5263 10.6H16.0526M19.5263 10.6H23M7.94737 9.53333C6.719 9.53333 5.54094 9.08381 4.67235 8.28366C3.80376 7.4835 3.31579 6.39826 3.31579 5.26667C3.31579 4.13508 3.80376 3.04983 4.67235 2.24968C5.54094 1.44952 6.719 1 7.94737 1C9.17574 1 10.3538 1.44952 11.2224 2.24968C12.091 3.04983 12.5789 4.13508 12.5789 5.26667C12.5789 6.39826 12.091 7.4835 11.2224 8.28366C10.3538 9.08381 9.17574 9.53333 7.94737 9.53333Z" stroke="#758A88" stroke-width="2" stroke-linecap="round" stroke-linejoin="round"/>
</svg>
