<svg width="24" height="25" viewBox="0 0 24 25" fill="none" xmlns="http://www.w3.org/2000/svg">
<path d="M15.8232 14.5796C17.0167 14.9468 18.0918 15.4585 19.0484 16.1148C20.005 16.771 20.8212 17.5367 21.4969 18.4117C22.1727 19.2867 22.6905 20.2359 23.0503 21.2593C23.4101 22.2827 23.59 23.357 23.59 24.482H21.905C21.905 23.2007 21.6505 22.0132 21.1415 20.9195C20.6325 19.8257 19.9216 18.8726 19.0089 18.0601C18.0962 17.2476 17.0299 16.6187 15.81 16.1734C14.5902 15.7281 13.2518 15.4976 11.795 15.482C10.856 15.482 9.95203 15.5874 9.0832 15.7984C8.21438 16.0093 7.40698 16.3062 6.66102 16.689C5.91505 17.0718 5.23491 17.5367 4.62059 18.0835C4.00626 18.6304 3.48409 19.2359 3.05406 19.8999C2.62404 20.564 2.28616 21.2867 2.04043 22.0679C1.7947 22.8492 1.67622 23.6538 1.685 24.482H0C0 23.357 0.184297 22.2827 0.552891 21.2593C0.921484 20.2359 1.44366 19.2906 2.11941 18.4234C2.79517 17.5562 3.61134 16.7984 4.56793 16.1499C5.52452 15.5015 6.59958 14.982 7.79313 14.5913C7.10859 14.2632 6.49427 13.8648 5.95016 13.396C5.40604 12.9273 4.9453 12.4077 4.56793 11.8374C4.19056 11.2671 3.89656 10.6538 3.68594 9.99759C3.47531 9.34134 3.37 8.66946 3.37 7.98196C3.37 6.9429 3.5894 5.97025 4.0282 5.064C4.46701 4.15775 5.06816 3.36087 5.83168 2.67337C6.5952 1.98587 7.48596 1.45071 8.50398 1.0679C9.52201 0.685089 10.619 0.489777 11.795 0.481964C12.9622 0.481964 14.0548 0.677277 15.0729 1.0679C16.0909 1.45853 16.986 1.99368 17.7583 2.67337C18.5306 3.35306 19.1318 4.14603 19.5618 5.05228C19.9918 5.95853 20.2112 6.93509 20.22 7.98196C20.22 8.66946 20.1191 9.33743 19.9172 9.98587C19.7154 10.6343 19.4214 11.2437 19.0352 11.814C18.6491 12.3843 18.1883 12.9038 17.653 13.3726C17.1177 13.8413 16.5077 14.2437 15.8232 14.5796ZM5.055 7.98196C5.055 8.81009 5.23052 9.58743 5.58156 10.314C5.9326 11.0406 6.41529 11.6734 7.02961 12.2124C7.64393 12.7515 8.35918 13.1812 9.17535 13.5015C9.99152 13.8218 10.8647 13.982 11.795 13.982C12.7253 13.982 13.5985 13.8257 14.4146 13.5132C15.2308 13.2007 15.9417 12.771 16.5472 12.2242C17.1528 11.6773 17.6355 11.0406 17.9953 10.314C18.3551 9.58743 18.535 8.81009 18.535 7.98196C18.535 7.15384 18.3595 6.3765 18.0084 5.64993C17.6574 4.92337 17.1747 4.29056 16.5604 3.7515C15.9461 3.21243 15.2308 2.78275 14.4146 2.46243C13.5985 2.14212 12.7253 1.98196 11.795 1.98196C10.8647 1.98196 9.99152 2.13821 9.17535 2.45071C8.35918 2.76321 7.64832 3.1929 7.04277 3.73978C6.43723 4.28665 5.95454 4.92337 5.59473 5.64993C5.23491 6.3765 5.055 7.15384 5.055 7.98196Z" fill="#329993"/>
</svg>
