<svg width="21" height="20" viewBox="0 0 21 20" fill="none" xmlns="http://www.w3.org/2000/svg">
<path d="M10.5016 5.75194C9.61163 5.75194 8.7416 6.01586 8.00158 6.51032C7.26156 7.00479 6.68478 7.70759 6.34419 8.52986C6.00359 9.35213 5.91448 10.2569 6.08811 11.1298C6.26174 12.0028 6.69033 12.8046 7.31966 13.4339C7.949 14.0633 8.75082 14.4918 9.62374 14.6655C10.4967 14.8391 11.4015 14.75 12.2237 14.4094C13.046 14.0688 13.7488 13.492 14.2433 12.752C14.7377 12.012 15.0016 11.142 15.0016 10.2519C15.0004 9.05884 14.5259 7.91497 13.6823 7.07133C12.8386 6.22768 11.6947 5.75318 10.5016 5.75194ZM10.5016 13.2519C9.9083 13.2519 9.32828 13.076 8.83493 12.7463C8.34158 12.4167 7.95707 11.9482 7.73 11.4C7.50294 10.8518 7.44353 10.2486 7.55929 9.66667C7.67504 9.08472 7.96076 8.55017 8.38032 8.13062C8.79988 7.71106 9.33443 7.42534 9.91637 7.30958C10.4983 7.19382 11.1015 7.25323 11.6497 7.4803C12.1979 7.70736 12.6664 8.09188 12.9961 8.58523C13.3257 9.07857 13.5016 9.65859 13.5016 10.2519C13.5016 11.0476 13.1856 11.8106 12.623 12.3733C12.0604 12.9359 11.2973 13.2519 10.5016 13.2519ZM20.8085 8.30287C20.7876 8.19726 20.7442 8.09738 20.6813 8.01003C20.6184 7.92267 20.5374 7.84989 20.4438 7.79662L17.6473 6.20287L17.636 3.051C17.6357 2.94245 17.6118 2.83527 17.566 2.73685C17.5202 2.63844 17.4535 2.55115 17.3707 2.481C16.3563 1.6229 15.1881 0.96531 13.9282 0.543185C13.829 0.509604 13.7238 0.497176 13.6195 0.506703C13.5152 0.51623 13.4141 0.547499 13.3226 0.598498L10.5016 2.17537L7.67789 0.595685C7.58635 0.544399 7.48506 0.512894 7.38058 0.503204C7.2761 0.493515 7.17074 0.505858 7.07133 0.539435C5.81241 0.964646 4.64554 1.62475 3.63258 2.48475C3.54986 2.5548 3.48331 2.64194 3.43751 2.74018C3.39171 2.83842 3.36774 2.94542 3.36727 3.05381L3.35321 6.2085L0.556643 7.80225C0.463082 7.85551 0.382085 7.9283 0.319157 8.01565C0.256229 8.10301 0.212846 8.20288 0.191956 8.3085C-0.0639853 9.59464 -0.0639853 10.9186 0.191956 12.2047C0.212846 12.3104 0.256229 12.4102 0.319157 12.4976C0.382085 12.585 0.463082 12.6577 0.556643 12.711L3.35321 14.3047L3.36446 17.4566C3.3648 17.5652 3.38869 17.6724 3.4345 17.7708C3.48031 17.8692 3.54693 17.9565 3.62977 18.0266C4.64421 18.8847 5.81241 19.5423 7.07227 19.9644C7.17148 19.998 7.27663 20.0104 7.38094 20.0009C7.48525 19.9914 7.5864 19.9601 7.67789 19.9091L10.5016 18.3285L13.3254 19.9082C13.4371 19.9704 13.5631 20.0027 13.691 20.0019C13.7729 20.0019 13.8543 19.9886 13.932 19.9626C15.1907 19.5379 16.3576 18.8785 17.3707 18.0191C17.4534 17.9491 17.52 17.8619 17.5658 17.7637C17.6116 17.6655 17.6355 17.5585 17.636 17.4501L17.6501 14.2954L20.4466 12.7016C20.5402 12.6484 20.6212 12.5756 20.6841 12.4882C20.7471 12.4009 20.7904 12.301 20.8113 12.1954C21.0658 10.9103 21.0649 9.58762 20.8085 8.30287ZM19.4023 11.5757L16.7238 13.0991C16.6065 13.1659 16.5093 13.263 16.4426 13.3804C16.3882 13.4741 16.331 13.5735 16.2729 13.6672C16.1985 13.7855 16.1589 13.9222 16.1585 14.0619L16.1445 17.0854C15.4245 17.6507 14.6225 18.1028 13.766 18.426L11.0641 16.9204C10.952 16.8583 10.8258 16.826 10.6976 16.8266H10.6798C10.5663 16.8266 10.452 16.8266 10.3385 16.8266C10.2044 16.8233 10.0717 16.8556 9.95414 16.9204L7.25039 18.4297C6.39212 18.1091 5.58785 17.6592 4.86539 17.0957L4.85508 14.0769C4.85462 13.937 4.815 13.7999 4.74071 13.6813C4.68258 13.5876 4.62539 13.4938 4.57196 13.3944C4.5057 13.2753 4.40854 13.1762 4.29071 13.1076L1.60946 11.5804C1.47071 10.7027 1.47071 9.80867 1.60946 8.931L4.28321 7.40475C4.40056 7.33802 4.49773 7.24085 4.56446 7.1235C4.61883 7.02975 4.67602 6.93037 4.73414 6.83662C4.80855 6.7184 4.84818 6.58162 4.84852 6.44194L4.86258 3.4185C5.58251 2.85313 6.38457 2.40105 7.24102 2.07787L9.93914 3.5835C10.0566 3.64859 10.1893 3.68096 10.3235 3.67725C10.437 3.67725 10.5513 3.67725 10.6648 3.67725C10.7989 3.6806 10.9316 3.64825 11.0491 3.5835L13.7529 2.07412C14.6112 2.39482 15.4154 2.84469 16.1379 3.40819L16.1482 6.42693C16.1487 6.5669 16.1883 6.70394 16.2626 6.82256C16.3207 6.91631 16.3779 7.01006 16.4313 7.10944C16.4976 7.2286 16.5947 7.32771 16.7126 7.39631L19.3938 8.9235C19.5344 9.80185 19.536 10.6968 19.3985 11.5757H19.4023Z" fill="#758A88"/>
</svg>
