<svg width="24" height="16" viewBox="0 0 24 16" fill="none" xmlns="http://www.w3.org/2000/svg">
<path d="M10.9922 10.805C11.9974 10.1358 12.7605 9.16088 13.1688 8.02442C13.577 6.88795 13.6087 5.65027 13.2592 4.4944C12.9096 3.33853 12.1973 2.32584 11.2277 1.60608C10.2581 0.886324 9.08256 0.497711 7.87499 0.497711C6.66742 0.497711 5.4919 0.886324 4.52227 1.60608C3.55264 2.32584 2.84039 3.33853 2.49082 4.4944C2.14126 5.65027 2.17295 6.88795 2.5812 8.02442C2.98946 9.16088 3.75261 10.1358 4.7578 10.805C2.93951 11.4752 1.38665 12.7153 0.330923 14.3403C0.275438 14.4228 0.236898 14.5154 0.217543 14.6129C0.198188 14.7104 0.198405 14.8108 0.21818 14.9082C0.237956 15.0056 0.276896 15.0981 0.332737 15.1803C0.388578 15.2626 0.460205 15.3329 0.543457 15.3872C0.626708 15.4415 0.719922 15.4787 0.817681 15.4966C0.915439 15.5146 1.01579 15.5129 1.11291 15.4918C1.21002 15.4706 1.30196 15.4304 1.38338 15.3733C1.4648 15.3163 1.53407 15.2437 1.58717 15.1597C2.26816 14.1123 3.20001 13.2516 4.29808 12.6558C5.39616 12.06 6.62568 11.7479 7.87499 11.7479C9.1243 11.7479 10.3538 12.06 11.4519 12.6558C12.55 13.2516 13.4818 14.1123 14.1628 15.1597C14.2728 15.3232 14.4427 15.4368 14.6358 15.476C14.829 15.5152 15.0297 15.4768 15.1948 15.3692C15.3598 15.2615 15.4759 15.0933 15.5179 14.9007C15.5598 14.7082 15.5243 14.5069 15.4191 14.3403C14.3633 12.7153 12.8105 11.4752 10.9922 10.805ZM3.74999 6.12499C3.74999 5.30915 3.99191 4.51162 4.44517 3.83327C4.89843 3.15491 5.54267 2.6262 6.29642 2.31399C7.05016 2.00178 7.87956 1.92009 8.67973 2.07925C9.47991 2.23842 10.2149 2.63129 10.7918 3.20818C11.3687 3.78507 11.7616 4.52007 11.9207 5.32025C12.0799 6.12042 11.9982 6.94982 11.686 7.70356C11.3738 8.45731 10.8451 9.10154 10.1667 9.5548C9.48836 10.0081 8.69083 10.25 7.87499 10.25C6.78135 10.2488 5.73286 9.81376 4.95954 9.04044C4.18622 8.26712 3.75123 7.21863 3.74999 6.12499ZM23.4506 15.3781C23.284 15.4868 23.0811 15.5248 22.8865 15.4838C22.6919 15.4428 22.5215 15.3263 22.4128 15.1597C21.7326 14.1117 20.8009 13.2506 19.7026 12.655C18.6043 12.0595 17.3744 11.7483 16.125 11.75C15.9261 11.75 15.7353 11.671 15.5947 11.5303C15.454 11.3897 15.375 11.1989 15.375 11C15.375 10.8011 15.454 10.6103 15.5947 10.4697C15.7353 10.329 15.9261 10.25 16.125 10.25C16.7325 10.2494 17.3323 10.1147 17.8817 9.85541C18.431 9.59614 18.9164 9.21873 19.3029 8.75016C19.6895 8.28158 19.9679 7.7334 20.1181 7.14478C20.2682 6.55617 20.2866 5.94165 20.1717 5.34513C20.0569 4.74862 19.8117 4.18483 19.4537 3.69405C19.0957 3.20328 18.6337 2.79763 18.1008 2.50609C17.5678 2.21455 16.9771 2.04432 16.3707 2.00756C15.7644 1.97079 15.1574 2.06841 14.5931 2.29343C14.5011 2.3332 14.4021 2.35413 14.3018 2.35498C14.2016 2.35582 14.1022 2.33657 14.0096 2.29836C13.9169 2.26015 13.8329 2.20376 13.7624 2.13251C13.6919 2.06126 13.6364 1.97661 13.5992 1.88355C13.5619 1.79049 13.5437 1.69091 13.5456 1.5907C13.5476 1.49049 13.5695 1.39168 13.6103 1.3001C13.651 1.20853 13.7097 1.12606 13.7829 1.05755C13.856 0.98904 13.9422 0.935892 14.0362 0.901243C15.3276 0.386229 16.764 0.367696 18.0682 0.849219C19.3724 1.33074 20.4521 2.2782 21.099 3.50882C21.7459 4.73944 21.9141 6.16602 21.5712 7.51335C21.2283 8.86069 20.3986 10.0333 19.2422 10.805C21.0605 11.4752 22.6133 12.7153 23.6691 14.3403C23.7777 14.5069 23.8157 14.7098 23.7747 14.9044C23.7338 15.0991 23.6172 15.2694 23.4506 15.3781Z" fill="#758A88"/>
</svg>
